# xmcd CD database file
#
# Track frame offsets:
#	150
#	10390
#	30505
#	50410
#	92445
#	123065
#	152640
#	161470
#	182430
#	200660
#	229705
#	255320
#	272105
#	300180
#
# Disc length: 4299 seconds
#
# Revision: 0
# Processed by: cddbd v1.5.1PL0 Copyright (c) Steve Scherf et al.
# Submitted via: CDex 1.51
#
DISCID=9c10c90e
DTITLE=Lindsay Alexander - LIVE
DYEAR=2003
DGENRE=Blues
TTITLE0=Intro Frank Pellegrino
TTITLE1=I'm Tired
TTITLE2=Phone Booth
TTITLE3=Black Magic Woman
TTITLE4=Rainy Night
TTITLE5=Before You Accuse Me
TTITLE6=Advertisements by Frank Pellegrino
TTITLE7=20 Room House
TTITLE8=Get Yoru Money
TTITLE9=On Top of the Roof
TTITLE10=I'll Play the Blues
TTITLE11=Kansas City
TTITLE12=Sweet Little Angel
TTITLE13=Cooking in My Kitchen
EXTD=YEAR: 2003
EXTT0=
EXTT1=
EXTT2=
EXTT3=
EXTT4=
EXTT5=
EXTT6=
EXTT7=
EXTT8=
EXTT9=
EXTT10=
EXTT11=
EXTT12=
EXTT13=
PLAYORDER=
